<svg width="706" height="422" viewBox="0 0 706 422" fill="none" xmlns="http://www.w3.org/2000/svg">
<path d="M49.4 419.2C32.6 413.5 26 404.5 26 387.4C26 373 31.8 356.3 43.9 336.5C46.8 331.6 50 326.2 50.9 324.5C52.5 321.6 52.7 321.5 59 321.8L65.5 322.1V300.3C65.5 286.9 65.1 278.2 64.5 277.8C64 277.4 67.2 277 71.6 277C78 277 80.1 277.4 81.1 278.7C82.4 280.2 82.3 280.2 80.3 279.2C77.1 277.4 68 277.6 68 279.4C68 280.2 68.5 281.2 69 281.5C69.5 281.8 70 282.6 70 283.3C70 283.9 69.3 283.5 68.5 282.4C67.2 280.7 67.1 281.7 67 291.9V303.4L70.5 298.4C72.5 295.7 73.9 292.7 73.6 291.8C72.9 288.9 73.9 289.8 75.7 293.8C77 296.4 77.6 301 78 309.5L78.5 321.5L84.1 321.8C91 322.2 90.8 322.4 91.6 308.1L92.2 297.5L97.7 288.8C100.7 284 102.9 279.6 102.5 279C102.2 278.5 99.8 277.9 97.2 277.8L92.5 277.7L98 277L103.5 276.3L97.9 276.2C91.9 276 91.3 276.4 86.3 282.8L84.5 285.1L83.2 282.9C82.4 281.8 82.3 281.1 82.9 281.5C84.1 282.2 84 282.3 92.9 272.5C96.5 268.7 103.4 261.3 108.4 256.2C116.5 247.8 117.6 247 119.5 248C120.7 248.6 122 249 122.6 248.9C123.1 248.8 124.2 249 125 249.3C127.1 250.2 142 253.3 145 253.5C146.4 253.6 148.5 254 149.6 254.4C151.9 255.1 168.9 258 169.9 257.8C170.2 257.7 171.2 257.9 172 258.2C174.8 259.3 195.1 262.1 202 262.5C203.9 262.6 206.2 262.9 207 263.2C207.8 263.6 209.2 263.9 210 263.9C215.1 264.1 221.9 264.8 224 265.4C227.5 266.2 241.5 267.3 247.9 267.1C250.9 267.1 253.9 267.5 254.5 268C255.2 268.6 257.3 269 259.1 269C262.6 269 279.1 269.9 287 270.6C289.5 270.8 299.7 271.1 309.7 271.3C319.8 271.5 328.2 271.8 328.4 272.1C328.8 272.5 399.5 272.4 399.5 272C399.5 271.9 406.3 271.6 414.5 271.5C433.2 271.2 456.2 270.1 461.5 269.3C466.6 268.6 471.1 268.1 478 267.6C494.3 266.4 499.7 265.9 502 265.4C504.1 264.9 509.1 264.3 515 263.9C515.8 263.9 517.2 263.6 518 263.3C518.8 263 521.8 262.6 524.5 262.4C527.3 262.3 532.2 261.7 535.5 261.1C538.8 260.5 543.5 259.8 546 259.5C548.5 259.2 551.2 258.6 552 258.3C552.8 258 554.4 257.6 555.5 257.5C564.2 256.4 568 255.7 571.5 254.8C573.7 254.2 575.9 253.7 576.4 253.9C577.2 254.1 594.3 250.3 597 249.3C597.8 248.9 598.8 248.7 599.2 248.8C599.6 248.9 601.2 248.5 602.7 247.9C604.2 247.3 606.4 246.7 607.5 246.5C613.9 245.7 642.3 236.6 651.6 232.5L656.8 230.2L663.8 238.9C676.5 254.5 682.8 270.5 680 279.9C679.3 282.5 679.3 283.6 680.3 284.2C681.5 285 680.1 285.4 677.4 285.1C675.7 284.9 671 290.8 670.9 293.3C670.8 294.5 670.8 298.4 670.8 302V308.5L670.1 302.5L669.4 296.5L667.7 300L665.9 303.5L666.6 300.2C667.8 293.7 662.6 286 655.6 284C653.3 283.4 647.7 283 643.1 283.2L634.7 283.5L634.8 297.5C634.9 305.2 634.9 315 635 319.3V327.1L640.8 326.8L646.5 326.5V318.3C646.5 313.4 646.9 310 647.5 310C648.1 310 648.5 311 648.5 312.3C648.5 313.5 649.1 315.5 649.8 316.7C650.4 317.9 651 319.2 651 319.7C650.9 320.1 650.3 319.4 649.5 318C648.1 315.6 648.1 315.7 648 321.1C648 324.1 647.5 327.1 646.8 327.8C645.2 329.4 635.8 329.4 634.2 327.8C633.5 327.1 633 323.2 632.9 318.1C632.8 313.3 632.6 310.3 632.3 311.3C632 312.5 630.8 313 628 313C625.2 313 623.4 313.7 621.9 315.3C619.9 317.3 619.8 317.3 620.6 315.5C621.1 314.4 621.5 310 621.5 305.7C621.5 301.3 621.9 297.9 622.5 297.9C623.1 297.8 625.1 297.7 627 297.6L630.5 297.5L630.8 290.5L631.1 283.5H614.8H598.5V290C598.5 295.9 598.7 296.5 600.5 296.3C601.6 296.2 603.2 296.3 604 296.7C604.8 297 605.9 297.4 606.4 297.4C606.9 297.5 607.5 298.2 607.7 299C608.1 300.3 608 300.3 607.1 299C606.4 297.9 606 299.9 605.8 306.5L605.5 315.4L601.3 315.5C598.9 315.5 597 315.9 597 316.3C597 316.8 596.6 316.9 596.1 316.6C595.7 316.3 595.4 310.1 595.5 302.8L595.7 289.6L592.4 286.5C587.8 282.1 582.2 280.6 576.8 282.1C567.9 284.7 564 292.1 564 306.4C564 313.8 563.8 314.6 562 314.7C560.9 314.8 559.8 314.5 559.5 313.9C559.1 313.4 556.2 313 552.9 313C549.6 313 547 312.6 547 312C547 311.5 549.5 311 552.5 311C558.5 311 559.4 310.2 559.4 305C559.4 299.9 558.5 299.2 553.6 299.7C549.4 300.2 549 300.1 549 298.1C549 296.2 549.6 296 554.3 296H559.7V289.5V283H550.8C542.6 283 541.8 283.2 538.9 285.8C536.6 287.8 535.7 289.6 535.5 292.1C535.4 294 535 296.3 534.5 297.3C534.1 298.4 533.9 303.3 534.2 308.3C534.5 313.4 534.5 316.4 534.3 315.1C534 313.8 533 312.5 531.9 312.3C529.8 311.7 529.8 311.5 530.9 308.5C532.3 305.3 530.3 304 523.8 304C519.5 304 517.8 304.4 517.4 305.5C517 306.3 516.3 306.7 515.7 306.3C515.2 306 515 306.2 515.3 306.8C515.7 307.3 515.8 308.5 515.4 309.3C515 310.5 514 310.5 508.7 309.4C505.3 308.7 502.3 308.3 501.9 308.6C501.5 308.8 500.9 307.8 500.6 306.4C500.1 304.6 500.6 302.6 502.4 299.6C504.7 295.6 505 295.4 509 295.8C512.1 296.1 513.5 296.9 514.8 298.9C517.1 302.5 517.9 302.9 520.9 301.9C522.3 301.5 525.1 301.2 527 301.3C530.4 301.5 530.5 301.4 530.2 298C530.1 296.1 529.3 293.9 528.5 293C527.7 292.1 527 290.9 527 290.4C527 289.1 522.2 284.6 519.1 283C515.9 281.4 504.2 281.1 500.5 282.6C498.9 283.3 496.3 284.8 494.7 286C491.9 288.2 486.8 296.1 487.1 297.6C487.2 298.1 487 299.8 486.5 301.4C486 303.2 486.1 305 486.9 306.1C488.6 309 488.2 309.6 486 307.3C484.8 305.9 482.2 304.9 479.3 304.5C476.6 304.1 472.9 303.5 471 303C461 300.7 462 300.4 462 305.5C462 308.3 461.6 309.9 461 309.5C458.7 308.1 460.1 302.9 464.5 296.7C467 293.1 469 289.9 469 289.6C469 289.2 470 287.6 471.1 286.1C472.3 284.5 472.9 282.7 472.6 282.1C472.2 281.5 469.2 281 466 281C460.6 281 459.9 281.3 457.9 284C456.7 285.6 455.2 286.6 454.7 286.3C454 285.9 453.9 286.4 454.4 287.6C455.2 289.7 454.5 289.1 451.2 284.6C449.2 281.9 448.4 281.7 442.5 281.6C438.9 281.5 436 281.8 436 282.2C436 283.2 443 295.2 444.8 297.3C446.3 299 446.2 299 443.4 297.5C441.8 296.7 439.9 296 439.2 296C438.5 296 438.2 295.5 438.5 295C440.3 292.1 432.7 281.2 428.7 280.9C420.1 280.2 418.7 280.4 414.8 282.3C412.3 283.7 409.9 285.9 408.8 288C407.8 290 407 290.7 407 289.7C407 288.8 406.4 288 405.6 288C404.8 288 403.5 287.7 402.6 287.4C401.4 286.9 401 287.5 400.9 289.6C400.9 292 400.6 291.7 399.3 287.6C397.8 283.4 397.1 282.5 393.2 280.9C388.1 278.7 386.1 278.6 380.8 280.2C376.3 281.5 371.2 286.8 370.3 291.1C370 292.7 369.4 294 369 294C368.6 294 367.8 295 367.1 296.3C366.5 297.5 366.2 297.7 366.4 296.7C367.4 293.2 365.6 288.7 361.7 285C357.3 280.7 358.1 280.9 344.5 280.5C337.9 280.3 334.3 280.6 333.8 281.4C333.4 282 333 290.3 333 299.9C333 316.7 332.9 317.3 330.8 319.2L328.5 321.2L328 316.3L327.5 311.5L322 311C315.3 310.4 315.2 308.6 321.8 308.2L326.7 307.9L326.6 302.7C326.5 297.5 326.5 297.5 323 297.2C317.4 296.8 316.5 296.3 318.1 294.4C319.1 293.2 320.4 293 323.7 293.5L328 294.1L327.3 291C327 289.2 327.3 286.9 328 285.5C330.2 281.3 329.1 280.7 319.3 280.7C305.1 280.8 303 283.1 303.8 297.6C304.1 304.1 303.9 307.4 303.1 308.4C301.2 310.7 302.9 316.8 306.5 320.7C308.3 322.7 310.2 324 310.8 323.6C311.4 323.3 312.2 323.5 312.6 324.1C313 324.8 314.7 325 316.9 324.6C318.9 324.3 321.2 324.5 322 325C323.3 325.8 323.2 326 321.6 326C320.6 326 316.7 327.9 313.1 330.2C296.7 340.6 262.6 359.2 238.5 371C220.3 379.8 207.2 386 206.5 386C206.2 386 203.2 387.3 199.8 388.9C181.8 397.1 147.7 409.2 127.5 414.5C105.6 420.2 92.9 422 74.6 422C58.6 422 57 421.8 49.4 419.2ZM215.8 322.8C216.6 322.1 218.1 321.1 219.3 320.5C220.4 320 222.9 317.3 224.8 314.7C227.9 310.4 228.3 309 228.6 302.5C228.9 296 228.6 294.5 226.2 289.9C224.7 287.1 222.6 284.2 221.6 283.6C220.5 283 218.9 281.7 217.9 280.8C213.7 276.8 200.7 277.2 194.2 281.5C191.9 283 190 284.9 190 285.6C190 286.4 189.5 287 189 287C188.4 287 187.1 288.9 186.1 291.1C184.6 294.4 184.1 294.9 183.7 293.4C182.6 289.9 184.1 304.5 185.2 308.7C186.3 313.1 192.2 321 194.5 321C195.2 321 196.3 321.6 197 322.4C197.6 323.2 199.1 324.1 200.3 324.4C203.9 325.1 214.2 324.1 215.8 322.8ZM277.2 324.5C278.3 324.1 278.5 322.5 278.2 318.1C277.8 311.9 279.1 308 281.5 308C282.7 308 283 309.5 283 314.5C283 318.7 282.6 321 281.8 321C281.2 321 281.5 321.9 282.5 323C283.9 324.5 285.6 325 289.4 325C292.2 325 295 324.6 295.5 324.2C296.2 323.8 296.5 315.5 296.5 301.7C296.5 277 297.1 278.5 288 279.2L283.6 279.5L283.5 287C283.5 294.5 283.5 294.5 280.6 294.8C278.9 295 278 294.8 278.4 294.1C278.8 293.6 279.8 293.4 280.7 293.7C282 294.2 281.9 293.8 280.2 292C277.9 289.5 277.2 284.2 279 282.4C281 280.4 277.4 278.9 271.6 279.2L266.1 279.5L265.5 301.7L264.9 323.9L268.2 324.3C273.9 325 275.8 325 277.2 324.5ZM162.2 319.9C162 317.8 162.4 315.9 162.9 315.5C164.4 314.6 168.2 315.9 167.5 317.1C166.8 318.1 168.7 322.1 170.4 323.2C171.9 324.3 182.8 324.2 183.4 323.1C183.7 322.7 182.4 318.5 180.6 313.9L177.2 305.6L179.6 302C181.6 299 182 297.2 181.9 292.5C181.7 287.2 181.3 286.3 177.9 282.9C173.6 278.6 170.2 277.8 157.7 278.2C150.9 278.5 149.9 278.7 149.4 280.5C149.2 281.6 149.1 291.5 149.2 302.5L149.5 322.5L153.1 322.2C155.2 322 157.1 322.4 157.5 323C157.9 323.6 159.2 324 160.3 323.8C162.2 323.5 162.5 322.9 162.2 319.9ZM252.2 309.4C251.8 293.8 252 293.4 257.6 293.9C259.4 294 261.1 293.6 261.5 293.1C261.8 292.5 262.6 292.2 263.1 292.5C263.6 292.9 264 290.4 264 286.6C264 282.1 263.6 279.9 262.8 279.8C262.1 279.7 254.4 279.5 245.8 279.5H230V286.1V292.8L234.5 292.2L239 291.7V307.6V323.5H245.8H252.5L252.2 309.4ZM116.7 321.7C117.3 321.3 118.1 321.4 118.5 322C119 322.8 128.1 322.7 132.1 321.8C134.2 321.3 141.2 314.6 142.8 311.5C143.7 309.7 144.4 305.4 144.5 300.8C144.8 292.5 144.7 292.3 137.3 283.3C134.2 279.5 129.4 278.3 116.5 278.1L104.5 277.9V299.2C104.5 310.9 104.8 321 105.2 321.5C105.9 322.7 114.9 322.8 116.7 321.7ZM281.7 309.3C281.3 309 280.7 309 280.3 309.3C280 309.7 280.3 310 281 310C281.7 310 282 309.7 281.7 309.3ZM324.3 309.3C323 309.1 320.8 309.1 319.3 309.3C317.7 309.5 318.8 309.7 321.5 309.7C324.3 309.7 325.5 309.5 324.3 309.3ZM632.7 287.3C632.5 285.2 632.3 286.7 632.3 290.5C632.3 294.4 632.5 296 632.7 294.3C632.9 292.5 632.9 289.3 632.7 287.3ZM324.3 295.3C323 295.1 321 295.1 319.8 295.3C318.5 295.5 319.5 295.7 322 295.7C324.5 295.7 325.5 295.5 324.3 295.3ZM120.3 276.3C117.4 276.1 112.6 276.1 109.8 276.3C106.9 276.5 109.2 276.6 115 276.6C120.8 276.6 123.1 276.5 120.3 276.3ZM209.3 276.3C208 276.1 206 276.1 204.8 276.3C203.5 276.5 204.5 276.7 207 276.7C209.5 276.7 210.5 276.5 209.3 276.3Z" fill="#C8C8C7"/>
<path d="M202.2 308.4C198.6 305.9 197.1 301.2 198.8 297.8C201.6 292 206.8 290.5 211.4 294.1C213.6 295.8 214 296.9 214 301C214 305.1 213.6 306.2 211.4 307.9C208.2 310.4 205.3 310.6 202.2 308.4Z" fill="#C8C8C7"/>
<path d="M163.2 312.8C161.8 311.4 161.6 303.4 162.9 302.6C163.6 302.1 165.3 313 164.6 313.7C164.5 313.8 163.8 313.4 163.2 312.8Z" fill="#C8C8C7"/>
<path d="M163 294.5C163 292.7 163.5 292 164.9 292C167.5 292 168.5 293.7 167 295.5C165.1 297.8 163 297.3 163 294.5Z" fill="#C8C8C7"/>
<path d="M117.1 310.3C117 309 117.3 308 117.8 308C118.2 308 118.3 304.2 118.1 299.5C117.8 291 117.8 291 120.3 291C121.6 291 124.4 291.7 126.4 292.5C130.1 294.1 130.7 295.5 130.1 302C129.8 304.9 128.2 307.2 126.9 306.4C126.4 306.1 126 306.4 126 306.9C126 307.5 124.5 308 122.7 308C120.2 308 119 308.6 118.2 310.3L117.1 312.5V310.3Z" fill="#C8C8C7"/>
<path d="M653.6 328.2C653.3 327.7 656.4 327.3 660.5 327.3C664.6 327.2 668 327.6 668 328.1C668 329.2 654.3 329.3 653.6 328.2Z" fill="#C8C8C7"/>
<path d="M680.3 328.3C680.7 328 681.3 328 681.7 328.3C682 328.7 681.7 329 681 329C680.3 329 680 328.7 680.3 328.3Z" fill="#C8C8C7"/>
<path d="M693.7 328.4C694.2 328.2 694.5 325.2 694.4 321.8L694.3 315.5L688.9 314.9L683.5 314.3L688.6 314.2C692 314.1 694.2 314.5 694.9 315.4C696.5 317.3 695.9 328.3 694.2 328.6C693.5 328.7 693.3 328.7 693.7 328.4Z" fill="#C8C8C7"/>
<path d="M504.3 327.3C505.2 327.1 506.6 327.1 507.3 327.3C507.9 327.6 507.2 327.8 505.5 327.8C503.9 327.8 503.3 327.6 504.3 327.3Z" fill="#C8C8C7"/>
<path d="M510.1 327.6C511.2 326.7 517 326.1 516.5 327C516.2 327.6 514.5 328 512.8 328C511.1 328 509.9 327.8 510.1 327.6Z" fill="#C8C8C7"/>
<path d="M544.5 327.1C543.4 326.6 545.8 326.5 550.2 326.8C557.6 327.2 558 327.2 559 324.9L560 322.5L559.7 325C559.5 327.4 559.1 327.5 553 327.7C549.4 327.8 545.6 327.5 544.5 327.1Z" fill="#C8C8C7"/>
<path d="M564.7 327.3C564.4 326.8 567.1 326.7 570.6 326.8L577 327.2V322.1C577 319.4 577.5 316.8 578 316.5C578.6 316.1 579 318 579 321.3C579 325.4 578.6 326.9 577.4 327.4C575.2 328.3 565.2 328.1 564.7 327.3Z" fill="#C8C8C7"/>
<path d="M585.8 327.3C587.5 327.1 590.5 327.1 592.3 327.3C594 327.5 592.6 327.7 589 327.7C585.4 327.7 584 327.5 585.8 327.3Z" fill="#C8C8C7"/>
<path d="M607.4 326.6C607.1 325.9 607 322.6 607.2 319.4L607.5 313.5L608 320.8C608.5 328 608.4 329.2 607.4 326.6Z" fill="#C8C8C7"/>
<path d="M677.3 327.3C677.7 327 678.3 327 678.7 327.3C679 327.7 678.7 328 678 328C677.3 328 677 327.7 677.3 327.3Z" fill="#C8C8C7"/>
<path d="M337.5 325C337.9 324.4 340.1 324.1 342.5 324.2C348.1 324.6 347.2 326 341.4 326C338.5 326 337.1 325.6 337.5 325Z" fill="#C8C8C7"/>
<path d="M355.5 325.1C355.8 324.5 357.9 324.3 360.7 324.7C364.5 325.2 365.5 325 366.7 323.4C368.1 321.5 368.2 321.5 367.8 323.5C367.5 325.2 366.6 325.5 361.2 325.8C357 326 355 325.7 355.5 325.1Z" fill="#C8C8C7"/>
<path d="M372.7 325.3C374.5 325.1 377.7 325.1 379.7 325.3C381.8 325.5 380.4 325.7 376.5 325.7C372.7 325.7 371 325.5 372.7 325.3Z" fill="#C8C8C7"/>
<path d="M387.5 324.8C386.7 322.1 386.3 312.9 387.1 313.7C387.5 314.1 388 317.1 388.2 320.3C388.5 325.9 388.3 327.2 387.5 324.8Z" fill="#C8C8C7"/>
<path d="M406.7 325.3C406.3 325 406 317.2 406 308.2C406 299.1 406.2 291.9 406.6 292.2C407 292.6 407.8 326 407.4 326C407.4 326 407 325.7 406.7 325.3Z" fill="#C8C8C7"/>
<path d="M537.9 323.4C535.7 320.9 535.7 320.8 537.6 321.8C538.8 322.4 540 323.6 540.4 324.5C541.2 326.6 540.7 326.4 537.9 323.4Z" fill="#C8C8C7"/>
<path d="M580.9 317.4C580.8 310.8 580.5 309.4 580 312C579.5 314.4 579.2 312.4 579.2 305.5C579.2 299.1 579.4 296.2 580 297.5C580.6 298.9 580.9 299.1 581 298C581.1 297.2 581.6 297.8 582 299.4C582.9 302.4 582.6 324.8 581.6 325.8C581.3 326.1 580.9 322.3 580.9 317.4Z" fill="#C8C8C7"/>
<path d="M673 324.5C671.9 323.2 672 323.1 673.4 323.6C674.3 323.9 675 324.6 675 325.1C675 326.4 674.4 326.2 673 324.5Z" fill="#C8C8C7"/>
<path d="M326.6 323.7C326.9 322.7 327.5 322.2 327.8 322.5C328.1 322.8 327.8 323.6 327.1 324.3C326.1 325.2 326 325.1 326.6 323.7Z" fill="#C8C8C7"/>
<path d="M333.4 323.8C333 323.1 333.1 323 333.8 323.4C335 324.1 335.4 325 334.6 325C334.3 325 333.8 324.5 333.4 323.8Z" fill="#C8C8C7"/>
<path d="M352.5 323.9C352.1 323.3 352 322.7 352.3 322.4C352.5 322.1 353 322.6 353.3 323.5C354 325.2 353.4 325.5 352.5 323.9Z" fill="#C8C8C7"/>
<path d="M494.9 323.3C493.6 321.7 493.7 321.6 495.3 322.9C496.2 323.6 497 324.4 497 324.6C497 325.4 496.2 324.9 494.9 323.3Z" fill="#C8C8C7"/>
<path d="M521 324.5C521 323.8 526 319 526.7 319C527.1 319 526.1 320.4 524.5 322C521.7 325 521 325.4 521 324.5Z" fill="#C8C8C7"/>
<path d="M651.7 324.3C651.3 324 651 323.2 651 322.6C651 322 651.5 322.1 652.2 322.8C652.8 323.4 653.1 324.2 652.9 324.5C652.6 324.8 652 324.7 651.7 324.3Z" fill="#C8C8C7"/>
<path d="M401.4 315.5C401.4 310.6 401.5 308.4 401.7 310.7C401.9 313 401.9 317.1 401.7 319.7C401.5 322.3 401.4 320.5 401.4 315.5Z" fill="#C8C8C7"/>
<path d="M34 321C34 320.3 34.3 320 34.7 320.3C35 320.7 35 321.3 34.7 321.7C34.3 322 34 321.7 34 321Z" fill="#C8C8C7"/>
<path d="M47.3 316C47.3 312.4 47.5 311 47.7 312.8C47.9 314.5 47.9 317.5 47.7 319.3C47.5 321 47.3 319.6 47.3 316Z" fill="#C8C8C7"/>
<path d="M665 321C665 320.3 665.3 320 665.7 320.3C666 320.7 666 321.3 665.7 321.7C665.3 322 665 321.7 665 321Z" fill="#C8C8C7"/>
<path d="M670.6 320.5C670.3 319.6 670 317.9 670.1 316.7C670.2 315.3 670.5 315.8 671 318C671.9 321.7 671.7 323.2 670.6 320.5Z" fill="#C8C8C7"/>
<path d="M365 319.1C363.8 316.7 363.7 315.7 364.9 316.4C365.8 317 367.1 321 366.4 321C366.2 321 365.6 320.1 365 319.1Z" fill="#C8C8C7"/>
<path d="M490.4 318.8C490 318.1 490.1 318 490.8 318.4C492 319.1 492.4 320 491.6 320C491.3 320 490.8 319.5 490.4 318.8Z" fill="#C8C8C7"/>
<path d="M51 311.9C51 305.7 50.8 304.9 49.5 306C48.5 306.8 48 306.9 48 306.2C48 305.6 48.9 304.6 49.9 304.1C51.4 303.2 51.9 303.4 52.4 305.3C53.4 308.9 53.1 319 52 319C51.4 319 51 316 51 311.9Z" fill="#C8C8C7"/>
<path d="M350 318C350 317.3 350.3 317 350.7 317.3C351 317.7 351 318.3 350.7 318.7C350.3 319 350 318.7 350 318Z" fill="#C8C8C7"/>
<path d="M663.7 317.1C663.3 315.4 663.4 315 664.2 315.8C664.7 316.3 665 317.4 664.8 318.1C664.5 318.9 664.1 318.4 663.7 317.1Z" fill="#C8C8C7"/>
<path d="M527 317.1C527 316.5 527.4 315.8 528 315.5C528.6 315.2 528.7 315.6 528.4 316.4C527.7 318.2 527 318.5 527 317.1Z" fill="#C8C8C7"/>
<path d="M382.5 316C382.8 315.5 383.3 315 383.6 315C383.9 315 383.8 315.5 383.5 316C383.2 316.6 382.7 317 382.4 317C382.1 317 382.2 316.6 382.5 316Z" fill="#C8C8C7"/>
<path d="M488.1 315.2C486.4 312.1 486.8 311.2 488.6 313.8C489.5 315.1 490 316.4 489.7 316.7C489.4 316.9 488.7 316.3 488.1 315.2Z" fill="#C8C8C7"/>
<path d="M504.8 313.4C503.2 312.6 502 311.4 502 310.8C502 310.2 502.8 310.4 503.8 311.3C504.8 312.3 506.9 313 508.4 313C510 313 510.9 313.4 510.5 314C509.7 315.4 508 315.2 504.8 313.4Z" fill="#C8C8C7"/>
<path d="M362.7 313.3C362.3 313 362 312 362 311.1C362.1 309.8 362.3 309.8 363.1 311.3C364.2 313.2 363.9 314.6 362.7 313.3Z" fill="#C8C8C7"/>
<path d="M662 313C662 312.3 662.3 312 662.7 312.3C663 312.7 663 313.3 662.7 313.7C662.3 314 662 313.7 662 313Z" fill="#C8C8C7"/>
<path d="M347 311.9C347 311.4 347.5 311.2 348 311.5C348.6 311.8 349 312.3 349 312.6C349 312.8 348.6 313 348 313C347.5 313 347 312.5 347 311.9Z" fill="#C8C8C7"/>
<path d="M607.3 306.5C607.3 303.2 607.5 302 607.7 303.8C607.9 305.6 607.9 308.3 607.7 309.8C607.5 311.3 607.3 309.8 607.3 306.5Z" fill="#C8C8C7"/>
<path d="M693.9 307.7C694.3 303.1 692.5 301 687.9 301C684.8 301 683.3 299.5 685.1 298.4C685.9 298 686 298.1 685.6 298.8C685.1 299.6 686.1 300 688.7 300C690.9 300 693.1 300.5 693.8 301.2C695.1 302.5 695.5 310.6 694.2 311.4C693.8 311.6 693.6 310 693.9 307.7Z" fill="#C8C8C7"/>
<path d="M420.7 310.3C419.7 309.4 419.8 299.2 420.8 298.7C421.2 298.4 421.5 301.1 421.5 304.6C421.5 308.1 421.5 311 421.4 311C421.4 311 421 310.7 420.7 310.3Z" fill="#C8C8C7"/>
<path d="M427.3 310.3C427.7 310 428.3 310 428.7 310.3C429 310.7 428.7 311 428 311C427.3 311 427 310.7 427.3 310.3Z" fill="#C8C8C7"/>
<path d="M661 310.6C661 310.4 661.8 309.6 662.8 308.9C664.3 307.6 664.4 307.7 663.1 309.3C661.8 310.9 661 311.4 661 310.6Z" fill="#C8C8C7"/>
<path d="M431.5 309C431.8 308.5 432.3 308 432.6 308C432.9 308 432.8 308.5 432.5 309C432.2 309.6 431.7 310 431.4 310C431.1 310 431.2 309.6 431.5 309Z" fill="#C8C8C7"/>
<path d="M360.7 308.4C359.5 307.1 359.9 306.1 362.3 304.9C364.2 303.9 364.3 303.9 363.4 305.1C362.8 305.9 362.1 307.1 361.9 307.8C361.6 308.5 361.1 308.8 360.7 308.4Z" fill="#C8C8C7"/>
<path d="M386.9 305.3C386.8 304.3 386.8 301.6 387 299.3C387.1 295.9 386.8 295 385.5 295C384.6 295 384.2 294.5 384.6 293.9C385.8 291.9 387.8 295.3 388.5 300.6C388.9 303.9 388.8 306 388.1 306.5C387.5 306.8 386.9 306.3 386.9 305.3Z" fill="#C8C8C7"/>
<path d="M664.5 306C664.8 305.5 665.3 305 665.6 305C665.9 305 665.8 305.5 665.5 306C665.2 306.6 664.7 307 664.4 307C664.1 307 664.2 306.6 664.5 306Z" fill="#C8C8C7"/>
<path d="M400.7 304.3C400 303 400.4 294.2 401.3 293.4C401.7 293 402 295.4 402 298.8C402 304.7 401.7 306 400.7 304.3Z" fill="#C8C8C7"/>
<path d="M436 304.1C436 303.6 436.5 302.8 437 302.5C437.6 302.2 438 302.3 438 302.9C438 303.4 437.6 304.2 437 304.5C436.5 304.8 436 304.7 436 304.1Z" fill="#C8C8C7"/>
<path d="M364.7 300.9C365.1 299.6 365.5 299.1 365.8 299.9C366 300.6 365.7 301.7 365.2 302.2C364.4 303 364.3 302.6 364.7 300.9Z" fill="#C8C8C7"/>
<path d="M647.2 300.3C647.4 298.1 648.1 297.4 650.3 297.2C653.5 296.8 653.9 298.8 651.2 301.3C648.4 303.8 646.8 303.4 647.2 300.3Z" fill="#C8C8C7"/>
<path d="M50.4001 300.5C50.0001 299.7 50.1001 297.8 50.4001 296.4C50.9001 294.5 50.6001 293.4 49.3001 292.4C47.6001 291.2 47.7001 291.1 49.8001 291.7C51.7001 292.2 52.0001 292.9 52.0001 297.1C52.0001 302 51.4001 303.3 50.4001 300.5Z" fill="#C8C8C7"/>
<path d="M382.8 298.5C383 297.1 383.4 296 383.6 296C383.8 296 384 297.1 384 298.5C384 299.9 383.6 301 383.1 301C382.7 301 382.5 299.9 382.8 298.5Z" fill="#C8C8C7"/>
<path d="M438 300C438 299.3 438.3 299 438.7 299.3C439 299.7 439 300.3 438.7 300.7C438.3 301 438 300.7 438 300Z" fill="#C8C8C7"/>
<path d="M348.6 298.3C348.3 297.9 348 296.8 348 295.8C348 293.3 351.5 293.4 351.7 295.9C351.9 297.8 349.7 299.4 348.6 298.3Z" fill="#C8C8C7"/>
<path d="M423.6 296.5C424.3 294.7 421.9 294.5 420.2 296.2C419.5 296.9 419 297.1 419 296.8C419 296.4 419.7 295.4 420.6 294.5C421.8 293.3 422.5 293.2 423.6 294.1C425.2 295.4 425.5 298 424 298C423.5 298 423.3 297.3 423.6 296.5Z" fill="#C8C8C7"/>
<path d="M695 292.2L695.5 286.5L695.8 291.4C696 294.1 695.8 296.6 695.3 297.1C694.9 297.5 694.7 295.3 695 292.2Z" fill="#C8C8C7"/>
<path d="M34.1001 283.3C34.1001 280.5 34.3001 277.9 34.8001 277.6C35.2001 277.4 35.4001 279 35.2001 281.3C34.7001 288.1 34.2001 288.9 34.1001 283.3Z" fill="#C8C8C7"/>
<path d="M48.0999 286C47.3999 284.6 47.5999 277.2 48.2999 277.9C48.7999 278.4 48.9999 280.5 48.6999 282.6C48.4999 284.8 48.1999 286.3 48.0999 286Z" fill="#C8C8C7"/>
<path d="M694.4 284.8C694 284.1 694.1 284 694.8 284.4C695.5 284.8 696 285.3 696 285.6C696 286.4 695.1 286 694.4 284.8Z" fill="#C8C8C7"/>
<path d="M52 279.2C52 278 53.9 276.6 54.6 277.3C54.8 277.5 54.4 278.3 53.5 279C52.6 279.8 52 279.8 52 279.2Z" fill="#C8C8C7"/>
<path d="M109.3 245.3C109.7 245 110.3 245 110.7 245.3C111 245.7 110.7 246 110 246C109.3 246 109 245.7 109.3 245.3Z" fill="#C8C8C7"/>
<path d="M100.3 243.3C100.7 243 101.3 243 101.7 243.3C102 243.7 101.7 244 101 244C100.3 244 99.9999 243.7 100.3 243.3Z" fill="#C8C8C7"/>
<path d="M96.5 242C96.2 241.4 96.6 241.3 97.4 241.6C99.2 242.3 99.5 243 98.1 243C97.5 243 96.8 242.6 96.5 242Z" fill="#C8C8C7"/>
<path d="M91.5001 241C90.2001 240.4 90.0001 240.1 91.0001 240.1C91.8001 240.1 93.2001 240.5 94.0001 241C95.8001 242.2 94.2001 242.2 91.5001 241Z" fill="#C8C8C7"/>
<path d="M84.5001 239C83.2001 238.4 83.0001 238.1 84.0001 238.1C84.8001 238.1 86.2001 238.5 87.0001 239C88.8001 240.2 87.2001 240.2 84.5001 239Z" fill="#C8C8C7"/>
<path d="M78.5001 237C77.2001 236.4 77.0001 236.1 78.0001 236.1C78.8001 236.1 80.2001 236.5 81.0001 237C82.8001 238.2 81.2001 238.2 78.5001 237Z" fill="#C8C8C7"/>
<path d="M73.5 235C73.2 234.4 73.6 234.3 74.4 234.6C76.2 235.3 76.5 236 75.1 236C74.5 236 73.8 235.6 73.5 235Z" fill="#C8C8C7"/>
<path d="M68.9999 234C67.6999 233.2 67.6999 233 69.1999 233C70.0999 233 71.1999 233.5 71.4999 234C72.2999 235.3 70.9999 235.3 68.9999 234Z" fill="#C8C8C7"/>
<path d="M63.9999 232C63.1999 231.5 62.9999 231 63.4999 231C64.0999 231 65.1999 231.5 65.9999 232C66.7999 232.5 67.0999 233 66.4999 233C65.9999 233 64.7999 232.5 63.9999 232Z" fill="#C8C8C7"/>
<path d="M56.3001 229.2C54.0001 228.3 51.8001 227.1 51.3001 226.7C50.9001 226.2 53.0001 226.8 56.0001 228C59.0001 229.2 61.7001 230.4 61.9001 230.6C62.8001 231.4 60.4001 230.8 56.3001 229.2Z" fill="#C8C8C7"/>
<path d="M658 229.6C658 229.4 658.7 228.9 659.6 228.6C660.4 228.3 660.8 228.4 660.5 229C659.9 230 658 230.4 658 229.6Z" fill="#C8C8C7"/>
<path d="M662 227.6C662 227.4 662.7 226.9 663.6 226.6C664.4 226.3 664.8 226.4 664.5 227C663.9 228 662 228.4 662 227.6Z" fill="#C8C8C7"/>
<path d="M668.1 224.6C669.1 223.7 675 221 675 221.4C675 222 669.5 225 668.4 225C668 225 667.9 224.8 668.1 224.6Z" fill="#C8C8C7"/>
<path d="M40.5 222C40.2 221.4 40.6 221.3 41.4 221.6C43.2 222.3 43.5 223 42.1 223C41.5 223 40.8 222.6 40.5 222Z" fill="#C8C8C7"/>
<path d="M526 221C524.7 220.2 524.7 220 526.2 220C527.1 220 528.2 220.5 528.5 221C529.3 222.3 528 222.3 526 221Z" fill="#C8C8C7"/>
<path d="M530.7 220.9C531.4 220.2 532.2 219.9 532.5 220.2C532.8 220.5 532.3 221.1 531.3 221.4C529.9 222 529.8 221.9 530.7 220.9Z" fill="#C8C8C7"/>
<path d="M574.5 221C572.9 220.3 572.8 220.1 574.2 220.1C575.1 220 576.2 220.5 576.5 221C577.2 222.1 577.2 222.1 574.5 221Z" fill="#C8C8C7"/>
<path d="M578.8 220.8C579.3 220.3 580.4 220 581.1 220.2C581.9 220.5 581.4 220.9 580.1 221.3C578.4 221.7 578 221.6 578.8 220.8Z" fill="#C8C8C7"/>
<path d="M36.5 220C36.2 219.4 36.6 219.3 37.4 219.6C39.2 220.3 39.5 221 38.1 221C37.5 221 36.8 220.6 36.5 220Z" fill="#C8C8C7"/>
<path d="M302.4 220.1C302.7 219.6 304.4 218.7 306.2 218.1C310 216.8 308.8 218.1 304.7 219.8C303.1 220.5 302.1 220.6 302.4 220.1Z" fill="#C8C8C7"/>
<path d="M338.4 220.1C338.7 219.6 340.4 218.7 342.2 218.1C346 216.8 344.8 218.1 340.7 219.8C339.1 220.5 338.1 220.6 338.4 220.1Z" fill="#C8C8C7"/>
<path d="M365.7 220.3C364.5 219.2 364.9 167.8 366 168.5C366.7 168.9 367 177.9 367 194.1C366.9 207.8 367.2 219.4 367.5 220C368.2 221.1 366.7 221.4 365.7 220.3Z" fill="#C8C8C7"/>
<path d="M427.9 220.3C427.3 216.9 427.4 215.1 428.2 215.6C428.6 215.9 428.8 216.6 428.4 217.1C428.1 217.6 428.4 218.7 429 219.5C429.9 220.6 429.9 221 429.1 221C428.5 221 427.9 220.7 427.9 220.3Z" fill="#C8C8C7"/>
<path d="M478 219.5C478.7 218.6 479.5 218.2 479.7 218.4C480.4 219.1 479 221 477.8 221C477.2 221 477.2 220.4 478 219.5Z" fill="#C8C8C7"/>
<path d="M567.8 219.4C564 217.4 564.2 216.6 568 218.5C569.7 219.4 571 220.3 571 220.5C571 221.2 570.9 221.1 567.8 219.4Z" fill="#C8C8C7"/>
<path d="M620.5 220C620.8 219.5 621.3 219 621.6 219C621.9 219 621.8 219.5 621.5 220C621.2 220.6 620.7 221 620.4 221C620.1 221 620.2 220.6 620.5 220Z" fill="#C8C8C7"/>
<path d="M642 208.9C642.4 200 642.9 196.7 644.1 195.5C645.7 193.9 649 194.4 649 196.2C649 196.8 648.5 196.8 647.6 196.1C646.5 195.2 645.8 195.3 644.6 196.5C643.3 197.8 643 200.4 643 209C643 215 642.7 220.1 642.3 220.3C641.8 220.6 641.7 215.5 642 208.9Z" fill="#C8C8C7"/>
<path d="M649.4 219.8C648.9 219.1 648.8 213.8 649.1 208L649.7 197.5V208.1C649.7 214 650.1 219.3 650.4 219.9C651.4 221.4 650.4 221.3 649.4 219.8Z" fill="#C8C8C7"/>
<path d="M663 219.5C663.7 218.6 664.5 218.2 664.7 218.4C665.4 219.1 664 221 662.8 221C662.2 221 662.2 220.4 663 219.5Z" fill="#C8C8C7"/>
<path d="M231 219C229.9 218.2 230.3 218.1 232.5 218.6C236.2 219.4 237 220 234.4 220C233.4 220 231.8 219.5 231 219Z" fill="#C8C8C7"/>
<path d="M241.1 219.6C241.3 219.4 242.9 219 244.5 218.6C246.7 218.1 247.1 218.2 246 219C244.6 219.9 240.1 220.5 241.1 219.6Z" fill="#C8C8C7"/>
<path d="M289 219C288.2 218.5 288 218 288.5 218C289.1 218 290.2 218.5 291 219C291.8 219.5 292.1 220 291.5 220C291 220 289.8 219.5 289 219Z" fill="#C8C8C7"/>
<path d="M324.3 219C320.9 217.6 321.5 216.9 325 218.1C326.7 218.7 328 219.4 328 219.6C328 220.2 326.8 220 324.3 219Z" fill="#C8C8C7"/>
<path d="M387.4 193C387.4 177.9 387.6 171.7 387.7 179.3C387.9 186.8 387.9 199.2 387.7 206.8C387.6 214.3 387.4 208.1 387.4 193Z" fill="#C8C8C7"/>
<path d="M457.1 218.4C457.1 217.3 457.4 217 457.7 217.8C458 218.5 457.9 219.4 457.6 219.7C457.3 220.1 457 219.5 457.1 218.4Z" fill="#C8C8C7"/>
<path d="M519.3 219.3C519.7 219 520.3 219 520.7 219.3C521 219.7 520.7 220 520 220C519.3 220 519 219.7 519.3 219.3Z" fill="#C8C8C7"/>
<path d="M537.7 218.9C538.4 218.2 539.2 217.9 539.5 218.2C539.8 218.5 539.3 219.1 538.3 219.4C536.9 220 536.8 219.9 537.7 218.9Z" fill="#C8C8C7"/>
<path d="M587 218.5C588.4 217.7 590 217.1 590.5 217.1C591.1 217.1 590.4 217.7 589 218.5C587.6 219.3 586.1 219.9 585.5 219.9C585 219.9 585.6 219.3 587 218.5Z" fill="#C8C8C7"/>
<path d="M678.5 218.8C679.6 218.2 681.7 216.8 683.3 215.8C684.8 214.7 686 214.1 686 214.4C686 215.2 678.7 220 677.5 220C677 220 677.4 219.4 678.5 218.8Z" fill="#C8C8C7"/>
<path d="M32.5 218C32.2 217.4 32.6 217.3 33.4 217.6C35.2 218.3 35.5 219 34.1 219C33.5 219 32.8 218.6 32.5 218Z" fill="#C8C8C7"/>
<path d="M515 217C514.1 216.4 514 216 514.7 216C515.3 216 516.2 216.5 516.5 217C517.3 218.2 516.9 218.2 515 217Z" fill="#C8C8C7"/>
<path d="M541 217.7C541 217.5 542.5 216.1 544.3 214.4L547.5 211.5L544.6 214.8C541.8 217.8 541 218.5 541 217.7Z" fill="#C8C8C7"/>
<path d="M621.4 208C621.4 202.2 621.5 199.9 621.7 202.8C621.9 205.6 621.9 210.4 621.7 213.3C621.5 216.1 621.4 213.8 621.4 208Z" fill="#C8C8C7"/>
<path d="M254 215.1C255.4 214 257 213 257.5 213C258.6 213 256.8 214.4 253.5 216.1C252.2 216.8 252.3 216.4 254 215.1Z" fill="#C8C8C7"/>
<path d="M280.6 213C278.6 210.8 277 208.7 277 208.3C277 207.9 277.3 208 277.8 208.6C278.2 209.1 280.1 211.2 281.9 213.3C283.8 215.3 285.1 217 284.8 217C284.5 217 282.6 215.2 280.6 213Z" fill="#C8C8C7"/>
<path d="M310.7 215.9C311.4 215.2 312.2 214.9 312.5 215.2C312.8 215.5 312.3 216.1 311.3 216.4C309.9 217 309.8 216.9 310.7 215.9Z" fill="#C8C8C7"/>
<path d="M319.4 215.8C319 215.1 319.1 215 319.8 215.4C320.5 215.8 321 216.3 321 216.6C321 217.4 320.1 217 319.4 215.8Z" fill="#C8C8C7"/>
<path d="M347.2 215.4C348.2 214.4 349.2 213.8 349.4 214.1C349.7 214.4 348.9 215.2 347.7 215.9C345.6 217.2 345.6 217.1 347.2 215.4Z" fill="#C8C8C7"/>
<path d="M27.5 215C27.2 214.4 27.6 214.3 28.4 214.6C30.2 215.3 30.5 216 29.1 216C28.5 216 27.8 215.6 27.5 215Z" fill="#C8C8C7"/>
<path d="M560.4 213.8L558.5 211.5L560.8 213.4C562 214.5 563 215.5 563 215.7C563 216.5 562.2 215.9 560.4 213.8Z" fill="#C8C8C7"/>
<path d="M510.1 211.7C508.8 209.6 508.9 209.6 510.6 211.2C511.6 212.2 512.2 213.2 511.9 213.4C511.6 213.7 510.8 212.9 510.1 211.7Z" fill="#C8C8C7"/>
<path d="M352.5 209.6C353.5 208.2 354.4 207 354.7 207C355.4 207 353 210.9 351.9 211.6C351.3 211.9 351.6 211.1 352.5 209.6Z" fill="#C8C8C7"/>
<path d="M19.5 210C19.2 209.4 19.6 209.3 20.4 209.6C22.2 210.3 22.5 211 21.1 211C20.5 211 19.8 210.6 19.5 210Z" fill="#C8C8C7"/>
<path d="M261 209.5C261 209 262 207.4 263.1 206C264.4 204.3 264.8 204.2 264.1 205.5C262.4 208.8 261 210.6 261 209.5Z" fill="#C8C8C7"/>
<path d="M548 209.5C548 209 548.5 207.8 549 207C549.5 206.2 550 206 550 206.5C550 207.1 549.5 208.2 549 209C548.5 209.8 548 210.1 548 209.5Z" fill="#C8C8C7"/>
<path d="M556.6 208.3C556 206.9 556.1 206.8 557.1 207.7C557.8 208.4 558.1 209.2 557.8 209.5C557.5 209.8 556.9 209.3 556.6 208.3Z" fill="#C8C8C7"/>
<path d="M597 209.4C597 208.8 597.7 207.5 598.6 206.4C600 204.6 600 204.6 598.9 207C597.5 210.1 597 210.6 597 209.4Z" fill="#C8C8C7"/>
<path d="M697.3 203.7C700.5 200 703 196.5 703 195.8C703 195.2 703.3 195 703.6 195.3C704.5 196.2 699.8 202.8 695.3 207.1C692.9 209.3 693.6 208.2 697.3 203.7Z" fill="#C8C8C7"/>
<path d="M15.4 206.8C15 206.1 15.1 206 15.8 206.4C17 207.1 17.4 208 16.6 208C16.3 208 15.8 207.5 15.4 206.8Z" fill="#C8C8C7"/>
<path d="M507 204.4C506.1 201.6 506.1 199.8 507 196.4C507.7 193.9 508.6 191.7 509.1 191.4C509.5 191.2 509.4 192.3 508.8 194C508.2 195.7 508 199.6 508.2 202.6C508.5 205.6 508.5 208 508.4 208C508.3 208 507.6 206.4 507 204.4Z" fill="#C8C8C7"/>
<path d="M531.1 206.8C531.3 206.6 532.9 205.4 534.5 204L537.5 201.5L535.1 204.3C533.7 205.8 532.2 207 531.7 207C531.1 207 530.9 206.9 531.1 206.8Z" fill="#C8C8C7"/>
<path d="M275.8 203.7C275.5 201.8 275.6 201.2 276.2 201.8C276.8 202.4 277 203.6 276.8 204.6C276.5 206 276.3 205.8 275.8 203.7Z" fill="#C8C8C7"/>
<path d="M524.3 205.3C524.7 205 525.3 205 525.7 205.3C526 205.7 525.7 206 525 206C524.3 206 524 205.7 524.3 205.3Z" fill="#C8C8C7"/>
<path d="M8.99997 201.5C7.19997 199.6 5.79997 197.9 6.09997 197.7C6.29997 197.5 8.09997 199 10.1 201.1C14.6 205.9 13.6 206.3 8.99997 201.5Z" fill="#C8C8C7"/>
<path d="M355 204C355 203.3 355.3 203 355.7 203.3C356 203.7 356 204.3 355.7 204.7C355.3 205 355 204.7 355 204Z" fill="#C8C8C7"/>
<path d="M522.5 202.9C522.1 202.3 522 201.7 522.3 201.4C522.5 201.1 523 201.6 523.3 202.5C524 204.2 523.4 204.5 522.5 202.9Z" fill="#C8C8C7"/>
<path d="M299 200C298.2 199.5 297.8 198.8 298.1 198.5C298.5 198.2 299.3 198.6 300 199.5C301.4 201.2 301.1 201.4 299 200Z" fill="#C8C8C7"/>
<path d="M330.5 200C330.8 199.5 331.3 199 331.6 199C331.9 199 331.8 199.5 331.5 200C331.2 200.6 330.7 201 330.4 201C330.1 201 330.2 200.6 330.5 200Z" fill="#C8C8C7"/>
<path d="M266 199C266 198.3 266.3 198 266.7 198.3C267 198.7 267 199.3 266.7 199.7C266.3 200 266 199.7 266 199Z" fill="#C8C8C7"/>
<path d="M302.3 199.3C302.7 199 303.3 199 303.7 199.3C304 199.7 303.7 200 303 200C302.3 200 302 199.7 302.3 199.3Z" fill="#C8C8C7"/>
<path d="M522 199.3C522 198.2 525.8 194.4 526.3 195.1C526.5 195.3 525.6 196.6 524.3 197.9C523 199.2 522 199.9 522 199.3Z" fill="#C8C8C7"/>
<path d="M571 198.1C571 197.5 571.4 196.8 572 196.5C572.6 196.2 572.7 196.6 572.4 197.4C571.7 199.2 571 199.5 571 198.1Z" fill="#C8C8C7"/>
<path d="M582.6 197.3C582 195.9 582.1 195.8 583.1 196.7C583.8 197.4 584.1 198.2 583.8 198.5C583.5 198.8 582.9 198.3 582.6 197.3Z" fill="#C8C8C7"/>
<path d="M304 197C304 196.3 304.3 196 304.7 196.3C305 196.7 305 197.3 304.7 197.7C304.3 198 304 197.7 304 197Z" fill="#C8C8C7"/>
<path d="M326.5 196.9C326.1 196.3 326 195.7 326.3 195.4C326.5 195.1 327 195.6 327.3 196.5C328 198.2 327.4 198.5 326.5 196.9Z" fill="#C8C8C7"/>
<path d="M532 196C531.1 195.4 531 195 531.7 195C532.3 195 533.2 195.5 533.5 196C534.3 197.2 533.9 197.2 532 196Z" fill="#C8C8C7"/>
<path d="M546.8 196.3C548.6 195.9 549 195.4 548.5 193.7C548 192 548.1 191.8 548.9 193C550.7 195.6 550.1 197 547.3 196.9C544.8 196.7 544.8 196.7 546.8 196.3Z" fill="#C8C8C7"/>
<path d="M598 195.1C596.8 192.7 596.7 191.7 597.9 192.4C598.8 193 600.1 197 599.4 197C599.2 197 598.6 196.1 598 195.1Z" fill="#C8C8C7"/>
<path d="M663.7 196.3C663.3 196 663 194.6 663 193.3C663 191.9 662.5 189.9 661.9 188.7C661 187 661 186.7 662 187.7C662.7 188.3 663.6 190.7 664 192.9C664.8 197.2 664.7 197.4 663.7 196.3Z" fill="#C8C8C7"/>
<path d="M3.39997 194.8C2.99997 194.1 3.09997 194 3.79997 194.4C4.99997 195.1 5.39997 196 4.59997 196C4.29997 196 3.79997 195.5 3.39997 194.8Z" fill="#C8C8C7"/>
<path d="M226 195.2C226 194 227.9 192.6 228.6 193.3C228.8 193.5 228.4 194.3 227.5 195C226.6 195.8 226 195.8 226 195.2Z" fill="#C8C8C7"/>
<path d="M233.5 195C233.8 194.5 234.3 194 234.6 194C234.9 194 234.8 194.5 234.5 195C234.2 195.6 233.7 196 233.4 196C233.1 196 233.2 195.6 233.5 195Z" fill="#C8C8C7"/>
<path d="M334.2 180.3C334.1 171.3 334.3 164 334.8 164C335.2 164 335.4 168.8 335.2 174.7C334.7 194.7 334.4 196.6 334.2 180.3Z" fill="#C8C8C7"/>
<path d="M574.7 194.9C575.4 194.2 576.2 193.9 576.5 194.2C576.8 194.5 576.3 195.1 575.3 195.4C573.9 196 573.8 195.9 574.7 194.9Z" fill="#C8C8C7"/>
<path d="M579 195C578.1 194.4 578 194 578.7 194C579.3 194 580.2 194.5 580.5 195C581.3 196.2 580.9 196.2 579 195Z" fill="#C8C8C7"/>
<path d="M624 194.6C624.7 193.9 625.3 193.9 626 194.6C626.6 195.2 626.3 195.6 625 195.6C623.7 195.6 623.4 195.2 624 194.6Z" fill="#C8C8C7"/>
<path d="M556 194C556 193.3 556.3 193 556.7 193.3C557 193.7 557 194.3 556.7 194.7C556.3 195 556 194.7 556 194Z" fill="#C8C8C7"/>
<path d="M606 193.4C606 192.9 606.7 191.5 607.5 190.4C608.3 189.4 609 189 609 189.6C609 190.1 608.3 191.5 607.5 192.6C606.7 193.6 606 194 606 193.4Z" fill="#C8C8C7"/>
<path d="M0.99992 190.9C0.29992 189.8 -7.96107e-05 188.6 0.29992 188.4C0.49992 188.2 1.19992 189.1 1.79992 190.5C3.19992 193.5 2.49992 193.8 0.99992 190.9Z" fill="#C8C8C7"/>
<path d="M239.6 190.7C239.9 189.7 240.5 189.2 240.8 189.5C241.1 189.8 240.8 190.6 240.1 191.3C239.1 192.2 239 192.1 239.6 190.7Z" fill="#C8C8C7"/>
<path d="M449 190C449 189.3 449.3 189 449.7 189.3C450 189.7 450 190.3 449.7 190.7C449.3 191 449 190.7 449 190Z" fill="#C8C8C7"/>
<path d="M546.4 189.8C546 189.1 546.1 189 546.8 189.4C547.5 189.8 548 190.3 548 190.6C548 191.4 547.1 191 546.4 189.8Z" fill="#C8C8C7"/>
<path d="M558.6 189.7C558.9 188.7 559.5 188.2 559.8 188.5C560.1 188.8 559.8 189.6 559.1 190.3C558.1 191.2 558 191.1 558.6 189.7Z" fill="#C8C8C7"/>
<path d="M595.5 189.9C595.1 189.3 595 188.7 595.3 188.4C595.5 188.1 596 188.6 596.3 189.5C597 191.2 596.4 191.5 595.5 189.9Z" fill="#C8C8C7"/>
<path d="M456.6 188.3C456 186.9 456.1 186.8 457.1 187.7C457.8 188.4 458.1 189.2 457.8 189.5C457.5 189.8 456.9 189.3 456.6 188.3Z" fill="#C8C8C7"/>
<path d="M420 188C420 187.3 420.3 187 420.7 187.3C421 187.7 421 188.3 420.7 188.7C420.3 189 420 188.7 420 188Z" fill="#C8C8C7"/>
<path d="M239.7 187.3C239.3 187 239 186.2 239 185.6C239 185 239.5 185.1 240.2 185.8C240.8 186.4 241.1 187.2 240.9 187.5C240.6 187.8 240 187.7 239.7 187.3Z" fill="#C8C8C7"/>
<path d="M610.5 186.2C611.6 184.9 613.4 183.4 614.5 182.8C616.6 181.7 616.3 182 611.5 186C608.6 188.4 608.6 188.4 610.5 186.2Z" fill="#C8C8C7"/>
<path d="M425.5 186C425.2 185.5 425.4 185 425.9 185C426.5 185 427 185.5 427 186C427 186.6 426.8 187 426.6 187C426.3 187 425.8 186.6 425.5 186Z" fill="#C8C8C7"/>
<path d="M478.4 185.5C478.1 184.7 478 183.5 478.2 182.8C478.5 182.1 478.9 182.7 479.2 184.3C479.8 187.2 479.3 187.9 478.4 185.5Z" fill="#C8C8C7"/>
<path d="M421.3 185.3C421.7 185 422.3 185 422.7 185.3C423 185.7 422.7 186 422 186C421.3 186 421 185.7 421.3 185.3Z" fill="#C8C8C7"/>
<path d="M538.1 183.4C535.7 182.1 533.5 180.8 533.1 180.4C531.8 179.1 540.6 183.2 542 184.5C543.8 186.4 543.5 186.3 538.1 183.4Z" fill="#C8C8C7"/>
<path d="M564.9 184.1C566.2 182.9 567.7 182 568.3 182C569.5 182 569.4 182 565.5 184.4L562.5 186.1L564.9 184.1Z" fill="#C8C8C7"/>
<path d="M587.1 183.4C584.7 182.1 582.5 180.8 582.1 180.4C580.8 179.1 589.6 183.2 591 184.5C592.8 186.4 592.5 186.3 587.1 183.4Z" fill="#C8C8C7"/>
<path d="M656.6 183.5C655.5 182.7 655 182 655.6 182C656.1 182 657.4 182.7 658.4 183.5C659.5 184.3 660 185 659.4 185C658.9 185 657.6 184.3 656.6 183.5Z" fill="#C8C8C7"/>
<path d="M517 183.6C517 183.4 517.7 182.9 518.6 182.6C519.4 182.3 519.8 182.4 519.5 183C518.9 184 517 184.4 517 183.6Z" fill="#C8C8C7"/>
<path d="M237.4 181.8C237 181.1 237.1 181 237.8 181.4C238.5 181.8 239 182.3 239 182.6C239 183.4 238.1 183 237.4 181.8Z" fill="#C8C8C7"/>
<path d="M266 182C266 181.3 266.3 181 266.7 181.3C267 181.7 267 182.3 266.7 182.7C266.3 183 266 182.7 266 182Z" fill="#C8C8C7"/>
<path d="M627.3 182C623.9 180.6 624.5 179.9 628 181.1C629.7 181.7 631 182.4 631 182.6C631 183.2 629.8 183 627.3 182Z" fill="#C8C8C7"/>
<path d="M640.3 182.3C640.7 182 641.3 182 641.7 182.3C642 182.7 641.7 183 641 183C640.3 183 640 182.7 640.3 182.3Z" fill="#C8C8C7"/>
<path d="M522 181.6C522 181.4 522.7 180.9 523.6 180.6C524.4 180.3 524.8 180.4 524.5 181C523.9 182 522 182.4 522 181.6Z" fill="#C8C8C7"/>
<path d="M571 181.6C571 181.4 571.7 180.9 572.6 180.6C573.4 180.3 573.8 180.4 573.5 181C572.9 182 571 182.4 571 181.6Z" fill="#C8C8C7"/>
<path d="M618 181.6C618 181.4 618.7 180.9 619.6 180.6C620.4 180.3 620.8 180.4 620.5 181C619.9 182 618 182.4 618 181.6Z" fill="#C8C8C7"/>
<path d="M643.3 181.3C643.7 181 644.3 181 644.7 181.3C645 181.7 644.7 182 644 182C643.3 182 643 181.7 643.3 181.3Z" fill="#C8C8C7"/>
<path d="M650.5 181C650.2 180.4 650.6 180.3 651.4 180.6C653.2 181.3 653.5 182 652.1 182C651.5 182 650.8 181.6 650.5 181Z" fill="#C8C8C7"/>
<path d="M235.6 178.3C235 176.9 235.1 176.8 236.1 177.7C236.8 178.4 237.1 179.2 236.8 179.5C236.5 179.8 235.9 179.3 235.6 178.3Z" fill="#C8C8C7"/>
<path d="M400 177.1C400 176.5 400.4 175.8 401 175.5C401.6 175.2 401.7 175.6 401.4 176.4C400.7 178.2 400 178.5 400 177.1Z" fill="#C8C8C7"/>
<path d="M476 176C475.4 174.9 475.2 174 475.4 174C475.7 174 476.4 174.9 477 176C477.6 177.1 477.8 178 477.6 178C477.3 178 476.6 177.1 476 176Z" fill="#C8C8C7"/>
<path d="M262.2 173C259.1 167.6 259.4 166.5 262.6 171.8C264 174.2 265 176.3 264.8 176.5C264.6 176.7 263.5 175.1 262.2 173Z" fill="#C8C8C7"/>
<path d="M234 175C234 174.3 234.3 174 234.7 174.3C235 174.7 235 175.3 234.7 175.7C234.3 176 234 175.7 234 175Z" fill="#C8C8C7"/>
<path d="M704.6 173.3C704 171.9 704.1 171.8 705.1 172.7C705.8 173.4 706.1 174.2 705.8 174.5C705.5 174.8 704.9 174.3 704.6 173.3Z" fill="#C8C8C7"/>
<path d="M232.6 171.3C232 169.9 232.1 169.8 233.1 170.7C233.8 171.4 234.1 172.2 233.8 172.5C233.5 172.8 232.9 172.3 232.6 171.3Z" fill="#C8C8C7"/>
<path d="M406.9 169.3C408.8 167.5 410.8 166 411.4 166C412 166 411.3 166.7 410 167.7C408.6 168.6 406.6 170 405.4 170.9C404.3 171.8 404.9 171 406.9 169.3Z" fill="#C8C8C7"/>
<path d="M433.6 168.9C431.5 167.3 430.1 166 430.6 166C431.1 166 433.3 167.4 435.4 169C437.6 170.7 438.9 172 438.4 171.9C437.9 171.9 435.7 170.5 433.6 168.9Z" fill="#C8C8C7"/>
<path d="M701.7 167.7L700 164.5L702 166.9C703.7 168.9 704.6 171 703.8 171C703.6 171 702.7 169.5 701.7 167.7Z" fill="#C8C8C7"/>
<path d="M444.6 167.5C445.6 166.7 446.9 166 447.4 166C448 166 447.5 166.7 446.4 167.5C445.4 168.3 444.1 169 443.6 169C443 169 443.5 168.3 444.6 167.5Z" fill="#C8C8C7"/>
<path d="M467.6 167.5C466.5 166.7 466 166 466.6 166C467.1 166 468.4 166.7 469.4 167.5C470.5 168.3 471 169 470.4 169C469.9 169 468.6 168.3 467.6 167.5Z" fill="#C8C8C7"/>
<path d="M231.7 166.1C231.3 164.4 231.4 164 232.2 164.8C232.7 165.3 233 166.4 232.8 167.1C232.5 167.9 232.1 167.4 231.7 166.1Z" fill="#C8C8C7"/>
<path d="M0 165.4C0 164.8 0.7 163.5 1.6 162.4C3 160.6 3 160.6 1.9 163C0.5 166.1 0 166.6 0 165.4Z" fill="#C8C8C7"/>
<path d="M413.3 165.3C413.7 165 414.3 165 414.7 165.3C415 165.7 414.7 166 414 166C413.3 166 413 165.7 413.3 165.3Z" fill="#C8C8C7"/>
<path d="M427.3 165.3C427.7 165 428.3 165 428.7 165.3C429 165.7 428.7 166 428 166C427.3 166 427 165.7 427.3 165.3Z" fill="#C8C8C7"/>
<path d="M449 165.6C449 165.4 449.7 164.9 450.6 164.6C451.4 164.3 451.8 164.4 451.5 165C450.9 166 449 166.4 449 165.6Z" fill="#C8C8C7"/>
<path d="M463.3 165.3C463.7 165 464.3 165 464.7 165.3C465 165.7 464.7 166 464 166C463.3 166 463 165.7 463.3 165.3Z" fill="#C8C8C7"/>
<path d="M258 164C258 163.3 258.3 163 258.7 163.3C259 163.7 259 164.3 258.7 164.7C258.3 165 258 164.7 258 164Z" fill="#C8C8C7"/>
<path d="M698.4 162.8C698 162.1 698.1 162 698.8 162.4C699.5 162.8 700 163.3 700 163.6C700 164.4 699.1 164 698.4 162.8Z" fill="#C8C8C7"/>
<path d="M231.2 160C231.2 158.6 231.4 158.1 231.7 158.8C231.9 159.4 231.9 160.6 231.7 161.3C231.4 161.9 231.2 161.4 231.2 160Z" fill="#C8C8C7"/>
<path d="M3.49989 159C3.79989 158.5 4.29989 158 4.59989 158C4.89989 158 4.79989 158.5 4.49989 159C4.19989 159.6 3.69989 160 3.39989 160C3.09989 160 3.19989 159.6 3.49989 159Z" fill="#C8C8C7"/>
<path d="M370.4 158.8C370 158.1 370.1 158 370.8 158.4C372 159.1 372.4 160 371.6 160C371.3 160 370.8 159.5 370.4 158.8Z" fill="#C8C8C7"/>
<path d="M382 159.6C382 159.4 382.8 158.6 383.8 157.9C385.3 156.6 385.4 156.7 384.1 158.3C382.8 159.9 382 160.4 382 159.6Z" fill="#C8C8C7"/>
<path d="M262.7 155.9C263.4 155.2 264.2 154.9 264.5 155.2C264.8 155.5 264.3 156.1 263.3 156.4C261.9 157 261.8 156.9 262.7 155.9Z" fill="#C8C8C7"/>
<path d="M689 153.9C685.5 150.8 685.5 150.8 688.7 153C690.5 154.1 692.2 155.5 692.5 156C693.5 157.6 692.7 157.1 689 153.9Z" fill="#C8C8C7"/>
<path d="M231.6 154.7C231.9 153.7 232.5 153.2 232.8 153.5C233.1 153.8 232.8 154.6 232.1 155.3C231.1 156.2 231 156.1 231.6 154.7Z" fill="#C8C8C7"/>
<path d="M266 155.6C266 155.4 266.9 155 268 154.7C269.1 154.4 270 154.6 270 155.1C270 155.6 269.1 156 268 156C266.9 156 266 155.8 266 155.6Z" fill="#C8C8C7"/>
<path d="M365.8 153.5C365 151.7 365 150.3 366 148C367.5 144.5 368.5 144.5 367.2 148.1C366.7 149.4 366.6 151.7 367.1 153.2C368.1 156.7 367.3 156.8 365.8 153.5Z" fill="#C8C8C7"/>
<path d="M387.2 151.3C387.1 149.6 386.7 147.3 386.4 146.3C385.9 144.6 385.9 144.6 387 146.3C387.6 147.2 387.9 149.5 387.7 151.3L387.3 154.5L387.2 151.3Z" fill="#C8C8C7"/>
<path d="M232.6 149.7C232.9 148.7 233.5 148.2 233.8 148.5C234.1 148.8 233.8 149.6 233.1 150.3C232.1 151.2 232 151.1 232.6 149.7Z" fill="#C8C8C7"/>
<path d="M680.5 148C678.9 146.9 678 146 678.5 146C679.5 146 684.9 149.9 684 150C683.7 150 682.2 149.1 680.5 148Z" fill="#C8C8C7"/>
<path d="M14.4999 148C14.7999 147.5 15.2999 147 15.5999 147C15.8999 147 15.7999 147.5 15.4999 148C15.1999 148.6 14.6999 149 14.3999 149C14.0999 149 14.1999 148.6 14.4999 148Z" fill="#C8C8C7"/>
<path d="M234.9 145.5C236.6 142.2 238 140.4 238 141.5C238 142.1 237 143.6 235.9 145C234.6 146.7 234.2 146.8 234.9 145.5Z" fill="#C8C8C7"/>
<path d="M673 143.5C671.6 142.7 671 142.1 671.6 142C672.1 142 673.5 142.7 674.6 143.5C677 145.3 676.2 145.4 673 143.5Z" fill="#C8C8C7"/>
<path d="M21.7 142.9C22.4 142.2 23.2 141.9 23.5 142.2C23.8 142.5 23.3 143.1 22.3 143.4C20.9 144 20.8 143.9 21.7 142.9Z" fill="#C8C8C7"/>
<path d="M370 142.7C370 142.4 371.5 141.7 373.2 141.1C375 140.5 376 140.4 375.5 140.9C374.3 141.9 370 143.4 370 142.7Z" fill="#C8C8C7"/>
<path d="M380.3 142C376.9 140.6 377.5 139.9 381 141.1C382.7 141.7 384 142.4 384 142.6C384 143.2 382.8 143 380.3 142Z" fill="#C8C8C7"/>
<path d="M26.7 139.9C27.4 139.2 28.2 138.9 28.5 139.2C28.8 139.5 28.3 140.1 27.3 140.4C25.9 141 25.8 140.9 26.7 139.9Z" fill="#C8C8C7"/>
<path d="M665.3 139.3C665.7 139 666.3 139 666.7 139.3C667 139.7 666.7 140 666 140C665.3 140 665 139.7 665.3 139.3Z" fill="#C8C8C7"/>
<path d="M31.7 136.9C32.4 136.2 33.2 135.9 33.5 136.2C33.8 136.5 33.3 137.1 32.3 137.4C30.9 138 30.8 137.9 31.7 136.9Z" fill="#C8C8C7"/>
<path d="M243 135.9C246.6 133.5 252.1 131 253.7 131C254.7 131.1 253.8 131.7 251.8 132.4C249.7 133.2 246.9 134.5 245.5 135.4C242.9 137.1 240.5 137.7 243 135.9Z" fill="#C8C8C7"/>
<path d="M35.7 134.9C36.4 134.2 37.2 133.9 37.5 134.2C37.8 134.5 37.3 135.1 36.3 135.4C34.9 136 34.8 135.9 35.7 134.9Z" fill="#C8C8C7"/>
<path d="M656 135C655.1 134.4 655 134 655.7 134C656.3 134 657.2 134.5 657.5 135C658.3 136.2 657.9 136.2 656 135Z" fill="#C8C8C7"/>
<path d="M39.7 132.9C40.4 132.2 41.2 131.9 41.5 132.2C41.8 132.5 41.3 133.1 40.3 133.4C38.9 134 38.8 133.9 39.7 132.9Z" fill="#C8C8C7"/>
<path d="M268.5 133.1C267.9 132.6 266.6 132 265.5 131.7C263.6 131.3 263.6 131.2 265.6 131.1C266.8 131.1 268.3 131.7 269 132.5C270.4 134.1 270 134.5 268.5 133.1Z" fill="#C8C8C7"/>
<path d="M650.5 132.5C648 131.3 647.9 131.1 650 131.6C651.4 132 652.9 132.6 653.5 133.1C654.7 134.3 654 134.2 650.5 132.5Z" fill="#C8C8C7"/>
<path d="M45.9999 130C46.7999 129.5 47.9999 129 48.4999 129C49.0999 129 48.7999 129.5 47.9999 130C47.1999 130.5 46.0999 131 45.4999 131C44.9999 131 45.1999 130.5 45.9999 130Z" fill="#C8C8C7"/>
<path d="M641.5 129.1C639.3 128 638 127.2 638.5 127.2C639.9 127.1 647.8 130.8 646.5 130.9C646 130.9 643.7 130.1 641.5 129.1Z" fill="#C8C8C7"/>
<path d="M50.5 128C50.8 127.5 51.6 127 52.1 127C52.7 127 52.8 127.5 52.5 128C52.2 128.6 51.4 129 50.9 129C50.3 129 50.2 128.6 50.5 128Z" fill="#C8C8C7"/>
<path d="M56.7 125.9C57.4 125.2 58.2 124.9 58.5 125.2C58.8 125.5 58.3 126.1 57.3 126.4C55.9 127 55.8 126.9 56.7 125.9Z" fill="#C8C8C7"/>
<path d="M630 125C629.2 124.5 629 124 629.5 124C630.1 124 631.2 124.5 632 125C632.8 125.5 633.1 126 632.5 126C632 126 630.8 125.5 630 125Z" fill="#C8C8C7"/>
<path d="M55.5 118.8C41.6 102 36.4 92.9 33.9 81.8C32.4 74.6 33.8 67.3 38 60.7C49 43.2 85.9 33.8 136.2 35.4C176.5 36.6 217.7 42.1 263.5 52.2C271.2 53.9 278.6 55.5 280 55.8C289.6 57.7 323.5 66.7 344.4 72.9L351.3 75L359.6 70.5C390.3 53.9 424.5 37.6 449.6 27.7C480.6 15.4 508.1 6.99996 529 3.49996C534.2 2.69996 540.9 1.49996 543.9 0.999957C551.1 -0.300043 570.2 -0.300043 575.4 1.09996C590.5 4.99996 595.1 7.19996 601.2 13.7C610.6 23.6 610.7 42.6 601.6 65C597.3 75.5 579.3 105.9 576.9 106.8C576.4 107 576 107.8 576 108.7C576 109.7 575.4 109.9 573.8 109.4C572.5 109 570.4 108.5 569 108.3C567.6 108.1 563.6 107.3 560 106.6C556.4 105.8 551.9 104.9 550 104.7C548.1 104.5 545.8 104 545 103.7C544.2 103.3 541.7 102.9 539.5 102.7C537.3 102.5 534.8 102 534 101.7C532.4 101.1 522.5 99.8 517.5 99.5C515.9 99.4 513.8 99.1 513 98.7C512.2 98.4 510.8 98.1 510 98.1C505.5 97.8 500.3 97.1 499 96.6C498.2 96.3 494.1 95.8 490 95.6C485.9 95.4 482.3 95 482 94.9C481.7 94.8 479.5 94.5 477 94.4C474.5 94.2 470.7 93.8 468.5 93.5C466.3 93.1 461.6 92.6 458 92.4C454.4 92.2 446.8 91.6 441 91C435.2 90.4 429.1 90.1 427.3 90.4C425.5 90.6 423.8 90.5 423.5 90.1C423.1 89.8 419.6 89.4 415.7 89.3C411.7 89.1 402 88.7 394 88.4C375.4 87.7 305.8 87.6 287.5 88.4C279.8 88.7 270.4 89 266.5 89C262.7 89.1 259.2 89.4 258.7 89.7C258.1 90 252.3 90.5 245.6 90.7C239 90.9 232.8 91.3 232 91.6C231.2 91.9 227.8 92.3 224.5 92.5C221.2 92.7 216.7 93.1 214.5 93.5C212.3 93.8 208.3 94.2 205.5 94.4C196.6 95.1 187.6 96 185 96.6C182.5 97.2 177 98 174 98.1C173.2 98.1 171.8 98.4 171 98.7C170.2 99.1 168.2 99.4 166.5 99.6C161.3 100 153.7 101 149 102C146.5 102.5 139.3 103.9 133 105.1C126.7 106.3 121 107.6 120.4 108.1C119.8 108.6 119.1 108.7 118.8 108.4C118.4 108.1 116.5 108.3 114.3 108.9C112.2 109.5 106.5 110.9 101.5 112C96.6 113.2 92 114.6 91.4 115.1C90.8 115.6 90.1 115.8 89.8 115.5C89.2 114.9 63.8 122.9 62.6 124.1C61.1 125.5 60.9 125.3 55.5 118.8ZM543.7 94.8C544.8 93.8 546.2 93 546.8 93C547.5 93 548 92.4 548 91.6C548 90.9 548.7 89.7 549.6 88.9C550.5 88.1 550.9 86.8 550.6 85.4C550.2 84.1 550.5 82.8 551.1 82.5C551.6 82.1 552 80.8 551.9 79.7C551.8 78.5 552 76.8 552.3 76C552.7 75.2 553.2 72.7 553.4 70.5C554 65.2 554 65.2 555.1 67.5C555.8 69 555.9 68.8 555.4 66.4C555.1 64.5 555.5 61.6 556.4 59.5C557.3 57.4 558 54.9 558 53.8C558 50.5 554.9 45.1 552.7 44.4C549.5 43.3 534.1 43.1 530 44.1C528.1 44.5 523.4 45.6 519.5 46.5C515.7 47.4 511 49.3 509.2 50.6C506.1 53 502.8 58.1 503.2 59.7C503.3 60.1 503.1 61.5 502.7 62.7C501.3 66.6 504.3 71.5 510.9 75.9C514.2 78.2 517.2 80 517.6 80C518.7 80 523 84.2 523 85.2C523 86.2 526.4 91.3 529.2 94.6C531.6 97.3 540.8 97.4 543.7 94.8ZM576.1 81.2C579.4 79.9 584.7 75.4 586.2 72.7C586.8 71.6 587.4 68.5 587.5 65.9C587.7 61.7 587.5 61 584.6 58.9C582.9 57.6 579.7 56.3 577.5 56L573.5 55.5L578.2 53.2C583.2 50.7 589 44.9 589 42.4C589 41.6 589.4 41.1 589.9 41.5C590.4 41.8 590.8 40.5 590.7 38.6C590.6 36.7 590.2 35.4 589.8 35.7C589.3 35.9 589 35.4 589 34.6C589 33.8 587.8 32.3 586.3 31.2C582.9 28.9 575.3 28.9 569.7 31.3C566.1 32.9 566 32.9 567 30.9C567.6 29.8 568.4 29.1 568.8 29.4C569.2 29.6 569.6 26.3 569.8 22.1L570.1 14.3L566.6 11.7C561.1 7.49996 556.4 8.39996 549.8 14.9C546 18.8 542.5 25.4 543.5 27C544.3 28.4 542.9 31 541.6 30.3C541 30 541 30.2 541.8 31.1C542.4 31.8 543 33.1 543 34C543 36.3 547.7 42.3 548.4 41.1C548.9 40.4 549.7 40.4 550.9 41.2C552.3 42 553.5 41.9 556 40.6C559.8 38.8 561 39.2 559.3 41.9C558.7 42.9 558.4 45.5 558.6 47.6C558.9 49.8 559.1 52.4 559.1 53.5C559.2 54.6 559.4 54.9 559.7 54.3C560 53.4 560.7 53.4 562.5 54.6C563.7 55.4 565.2 56 565.6 55.9C566.1 55.8 567.4 55.8 568.5 55.9C570.2 56.1 570 56.3 567.5 57.7C563.1 60.1 557.5 66 556.2 69.8C554.8 73.9 556.9 79.3 560.7 81.3C563.6 82.9 572.1 82.8 576.1 81.2ZM580.7 54.3C580.3 54 579.7 54 579.3 54.3C579 54.7 579.3 55 580 55C580.7 55 581 54.7 580.7 54.3ZM517.7 45.3C517.3 45 516.7 45 516.3 45.3C516 45.7 516.3 46 517 46C517.7 46 518 45.7 517.7 45.3ZM527.8 42.3C544.4 34.5 548.4 8.79996 532.9 10.3C528.5 10.7 521 15.3 521 17.5C521 18.3 520.6 19 520.1 19C518.2 19 514.8 27.5 514.8 32.5C514.7 38 516.2 41.3 519.5 42.9C522.4 44.3 523.8 44.2 527.8 42.3Z" fill="#C8C8C7"/>
<path d="M624 123C622.2 121.8 623.8 121.8 626.5 123C627.8 123.6 628 123.9 627 123.9C626.2 123.9 624.8 123.5 624 123Z" fill="#C8C8C7"/>
<path d="M616.1 120.9C614.3 120.3 613 119.7 613.2 119.5C613.7 119 621 120.9 621 121.5C621 122.1 620.2 122 616.1 120.9Z" fill="#C8C8C7"/>
<path d="M609.8 118.3C610.5 118 611.4 118.1 611.7 118.4C612.1 118.7 611.5 119 610.4 118.9C609.3 118.9 609 118.6 609.8 118.3Z" fill="#C8C8C7"/>
<path d="M600 116C598.2 114.8 599.8 114.8 602.5 116C603.8 116.6 604 116.9 603 116.9C602.2 116.9 600.8 116.5 600 116Z" fill="#C8C8C7"/>
<path d="M594.3 114.3C594.7 114 595.3 114 595.7 114.3C596 114.7 595.7 115 595 115C594.3 115 594 114.7 594.3 114.3Z" fill="#C8C8C7"/>
<path d="M588 113C587.1 112.4 587 112 587.7 112C588.3 112 589.2 112.5 589.5 113C590.3 114.2 589.9 114.2 588 113Z" fill="#C8C8C7"/>
<path d="M591.3 113.3C591.7 113 592.3 113 592.7 113.3C593 113.7 592.7 114 592 114C591.3 114 591 113.7 591.3 113.3Z" fill="#C8C8C7"/>
<path d="M582.8 111.3C583.5 111 584.4 111.1 584.7 111.4C585.1 111.7 584.5 112 583.4 111.9C582.3 111.9 582 111.6 582.8 111.3Z" fill="#C8C8C7"/>
</svg>
